<svg id="Capa_1" data-name="Capa 1" xmlns="http://www.w3.org/2000/svg" viewBox="0 0 441.02 441.02">
    <defs>
        <style>.cls-1{fill:none;stroke:#000;stroke-miterlimit:10;stroke-width:6px;}</style>
    </defs>
    <title>CROP</title>
    <path class="cls-1"
          d="M429.16,323.65H347.59V146.93A40.45,40.45,0,0,0,340,123.37l94-94a6.8,6.8,0,0,0-9.61-9.61l-94,94a40.38,40.38,0,0,0-23.55-7.63H130.08V24.58a13.59,13.59,0,1,0-27.19,0v81.57H21.33a13.59,13.59,0,1,0,0,27.19h81.57V310.06a40.83,40.83,0,0,0,40.78,40.78H320.4v81.57a13.59,13.59,0,1,0,27.19,0V350.84h81.57A13.59,13.59,0,1,0,429.16,323.65ZM130.08,310.06V146.93a13.58,13.58,0,0,1,13.59-13.59H306.81a13,13,0,0,1,3.32.67L130.75,313.37A13.06,13.06,0,0,1,130.08,310.06Zm190.32,0a13.58,13.58,0,0,1-13.59,13.59H143.68a13,13,0,0,1-3.32-.68L319.74,143.61a12.5,12.5,0,0,1,.67,3.32V310.06Z"
          transform="translate(-4.73 -7.98)"/>
</svg>